<svg xmlns="http://www.w3.org/2000/svg" viewBox="0 0 512 512" role="img" aria-labelledby="title desc">
<title id="title">Umbrella Containment emblem</title>
<desc id="desc">Original red and ivory segmented containment parasol emblem on a transparent background.</desc>
<defs>
  <linearGradient id="red" x1="0" y1="0" x2="1" y2="1"><stop offset="0" stop-color="#ff334f"/><stop offset=".58" stop-color="#c8102e"/><stop offset="1" stop-color="#760c22"/></linearGradient>
  <linearGradient id="ivory" x1="0" y1="0" x2="0" y2="1"><stop offset="0" stop-color="#fff"/><stop offset="1" stop-color="#dfe4e8"/></linearGradient>
  <clipPath id="disc"><circle cx="256" cy="256" r="205"/></clipPath>
</defs>
<g>
  <circle cx="256" cy="256" r="221" fill="#0a0d12" stroke="#6f7580" stroke-width="10"/>
  <circle cx="256" cy="256" r="207" fill="#11161d" stroke="#edf1f4" stroke-width="6"/>
  <g clip-path="url(#disc)">
    <path d="M256 256 256 40A216 216 0 0 1 408.7 103.3Z" fill="url(#red)"/>
    <path d="M256 256 408.7 103.3A216 216 0 0 1 472 256Z" fill="url(#ivory)"/>
    <path d="M256 256 472 256A216 216 0 0 1 408.7 408.7Z" fill="url(#red)"/>
    <path d="M256 256 408.7 408.7A216 216 0 0 1 256 472Z" fill="url(#ivory)"/>
    <path d="M256 256 256 472A216 216 0 0 1 103.3 408.7Z" fill="url(#red)"/>
    <path d="M256 256 103.3 408.7A216 216 0 0 1 40 256Z" fill="url(#ivory)"/>
    <path d="M256 256 40 256A216 216 0 0 1 103.3 103.3Z" fill="url(#red)"/>
    <path d="M256 256 103.3 103.3A216 216 0 0 1 256 40Z" fill="url(#ivory)"/>
    <circle cx="256" cy="256" r="38" fill="#0c1016" stroke="#edf1f4" stroke-width="8"/>
    <circle cx="256" cy="256" r="19" fill="#c8102e"/>
  </g>
  <circle cx="256" cy="256" r="205" fill="none" stroke="#9ca4ad" stroke-width="3"/>
</g>
</svg>
