<svg xmlns="http://www.w3.org/2000/svg" width="1600" height="720" viewBox="0 0 1600 720" role="img" aria-labelledby="title desc"><title id="title">MissionChief Map Command Toolkit v7.1.3 retro emergency control room</title><desc id="desc">A retro UK emergency-services command console showing Incident Command Wire, mission, fleet, map, finance, interfaces and verified delivery.</desc><defs><linearGradient id="bg" x1="0" y1="0" x2="1" y2="1"><stop stop-color="#05080c"/><stop offset=".48" stop-color="#0a151c"/><stop offset="1" stop-color="#160b0d"/></linearGradient><linearGradient id="panel" x1="0" y1="0" x2="0" y2="1"><stop stop-color="#1a2a31"/><stop offset="1" stop-color="#0a1115"/></linearGradient><linearGradient id="glass" x1="0" y1="0" x2="0" y2="1"><stop stop-color="#fff" stop-opacity=".10"/><stop offset="1" stop-color="#fff" stop-opacity=".025"/></linearGradient><linearGradient id="edge" x1="0" y1="0" x2="1" y2="0"><stop stop-color="#27b7ff"/><stop offset=".48" stop-color="#75dcff"/><stop offset=".52" stop-color="#ff7d70"/><stop offset="1" stop-color="#d92835"/></linearGradient><pattern id="scan" width="4" height="4" patternUnits="userSpaceOnUse"><rect width="4" height="2" fill="#fff" opacity=".012"/></pattern><pattern id="grid" width="40" height="40" patternUnits="userSpaceOnUse"><path d="M40 0H0V40" fill="none" stroke="#94dfff" stroke-opacity=".035"/></pattern><pattern id="batten" width="80" height="24" patternUnits="userSpaceOnUse"><rect width="40" height="24" fill="#1fa6e8"/><rect x="40" width="40" height="24" fill="#f7d84b"/><path d="M0 24 40 0M40 24 80 0" stroke="#081014" stroke-opacity=".22" stroke-width="8"/></pattern><filter id="shadow" x="-20%" y="-20%" width="140%" height="140%"><feDropShadow dx="0" dy="18" stdDeviation="24" flood-color="#000" flood-opacity=".48"/></filter><filter id="blueGlow" x="-80%" y="-80%" width="260%" height="260%"><feGaussianBlur stdDeviation="8" result="b"/><feMerge><feMergeNode in="b"/><feMergeNode in="SourceGraphic"/></feMerge></filter><filter id="redGlow" x="-80%" y="-80%" width="260%" height="260%"><feGaussianBlur stdDeviation="8" result="b"/><feMerge><feMergeNode in="b"/><feMergeNode in="SourceGraphic"/></feMerge></filter></defs><rect width="1600" height="720" rx="34" fill="url(#bg)"/><rect width="1600" height="720" rx="34" fill="url(#grid)"/><rect width="1600" height="720" rx="34" fill="url(#scan)"/><rect x="2" y="2" width="1596" height="716" rx="32" fill="none" stroke="#fff" stroke-opacity=".13" stroke-width="3"/><g font-family="Segoe UI,Arial,sans-serif"><g transform="translate(66 42)"><rect width="1468" height="54" rx="14" fill="#090f13" stroke="#fff" stroke-opacity=".12"/><rect x="12" y="13" width="160" height="28" rx="14" fill="#102c3c" stroke="#27b7ff" stroke-opacity=".55"/><circle cx="32" cy="27" r="6" fill="#27b7ff" filter="url(#blueGlow)"/><text x="48" y="32" fill="#d7f3ff" font-size="13" font-weight="900" letter-spacing="1.6">CONTROL // 999</text><rect x="188" y="13" width="184" height="28" rx="14" fill="#302118" stroke="#f0b54d" stroke-opacity=".55"/><circle cx="208" cy="27" r="6" fill="#f0b54d"/><text x="224" y="32" fill="#ffe6aa" font-size="13" font-weight="900" letter-spacing="1.4">VERIFIED v7.1.3</text><rect x="388" y="13" width="240" height="28" rx="14" fill="#35151a" stroke="#e13d48" stroke-opacity=".55"/><circle cx="408" cy="27" r="6" fill="#e13d48" filter="url(#redGlow)"/><text x="424" y="32" fill="#ffdce0" font-size="12" font-weight="900" letter-spacing="1.2">INCIDENT COMMAND LIVE</text><text x="1438" y="33" text-anchor="end" fill="#8ea0aa" font-family="Courier New,monospace" font-size="12" font-weight="700">CALLSIGN MC-UK // STATUS GREEN</text></g><g transform="translate(72 130)"><text x="0" y="66" fill="#fff" font-family="Arial Black,Segoe UI,Arial,sans-serif" font-size="67" font-weight="900" letter-spacing="1">MISSIONCHIEF</text><text x="0" y="128" fill="#fff" font-family="Arial Black,Segoe UI,Arial,sans-serif" font-size="49" font-weight="900" letter-spacing=".8">MAP COMMAND TOOLKIT</text><rect x="2" y="150" width="706" height="6" rx="3" fill="url(#edge)"/><text x="2" y="196" fill="#8bdcff" font-family="Courier New,monospace" font-size="21" font-weight="900" letter-spacing="3">RETRO EMERGENCY CONTROL LAYER</text><text x="2" y="235" fill="#d6e1e6" font-size="17">Mission intelligence · Fleet identity · Native transport · Map context · Finance</text><g transform="translate(2 270)" font-size="12" font-weight="900" letter-spacing="1"><rect width="166" height="42" rx="8" fill="#102d3e" stroke="#27b7ff" stroke-opacity=".48"/><text x="22" y="27" fill="#d9f5ff">INCIDENT WIRE</text><rect x="180" width="148" height="42" rx="8" fill="#24301b" stroke="#75c864" stroke-opacity=".48"/><text x="208" y="27" fill="#e3f5d8">7 INTERFACES</text><rect x="342" width="216" height="42" rx="8" fill="#34231b" stroke="#f0b54d" stroke-opacity=".48"/><text x="369" y="27" fill="#ffe7b1">DESKTOP · TABLET · iOS</text></g><g transform="translate(0 344)" filter="url(#shadow)"><rect width="806" height="190" rx="22" fill="url(#glass)" stroke="#fff" stroke-opacity=".12"/><text x="26" y="36" fill="#8fa2ad" font-family="Courier New,monospace" font-size="11" font-weight="900" letter-spacing="2">DISPATCH MODULES</text><g transform="translate(26 60)"><rect width="176" height="98" rx="14" fill="#102c3b" stroke="#27b7ff" stroke-opacity=".38"/><circle cx="18" cy="20" r="5" fill="#27b7ff"/><text x="34" y="25" fill="#8be1ff" font-size="11" font-weight="900">MISSION</text><text x="18" y="55" fill="#fff" font-size="16" font-weight="900">Age · Value</text><text x="18" y="78" fill="#91a8b5" font-size="11">wire · commitment</text></g><g transform="translate(216 60)"><rect width="176" height="98" rx="14" fill="#18321f" stroke="#75c864" stroke-opacity=".38"/><circle cx="18" cy="20" r="5" fill="#75c864"/><text x="34" y="25" fill="#b8ebaa" font-size="11" font-weight="900">FLEET</text><text x="18" y="55" fill="#fff" font-size="16" font-weight="900">Codes · Badges</text><text x="18" y="78" fill="#9eb39a" font-size="11">availability · gap</text></g><g transform="translate(406 60)"><rect width="176" height="98" rx="14" fill="#332a16" stroke="#f0b54d" stroke-opacity=".38"/><circle cx="18" cy="20" r="5" fill="#f0b54d"/><text x="34" y="25" fill="#ffe29a" font-size="11" font-weight="900">MAP</text><text x="18" y="55" fill="#fff" font-size="16" font-weight="900">Rings · Places</text><text x="18" y="78" fill="#b7aa84" font-size="11">profiles · touch</text></g><g transform="translate(596 60)"><rect width="176" height="98" rx="14" fill="#37171d" stroke="#e13d48" stroke-opacity=".38"/><circle cx="18" cy="20" r="5" fill="#e13d48"/><text x="34" y="25" fill="#ffabb2" font-size="11" font-weight="900">FINANCE</text><text x="18" y="55" fill="#fff" font-size="16" font-weight="900">Income · Spend</text><text x="18" y="78" fill="#b69ba0" font-size="11">variance · Discord</text></g></g></g><g transform="translate(930 122)" filter="url(#shadow)"><rect width="604" height="542" rx="26" fill="url(#panel)" stroke="#6ccfff" stroke-opacity=".26"/><rect x="18" y="18" width="568" height="506" rx="20" fill="none" stroke="#fff" stroke-opacity=".07"/><text x="38" y="54" fill="#90a4af" font-family="Courier New,monospace" font-size="11" font-weight="900" letter-spacing="2">LIVE INCIDENT CONTROL</text><text x="38" y="92" fill="#fff" font-size="26" font-weight="900">Priority incidents. One clear signal.</text><text x="38" y="118" fill="#90a4af" font-size="12">Continuous command reel · expanded queue · direct map navigation</text><g transform="translate(38 145)"><rect width="528" height="82" rx="14" fill="#0b171d" stroke="#f0b54d" stroke-opacity=".30"/><rect width="126" height="82" rx="14" fill="#2c2113"/><text x="16" y="28" fill="#ffe29a" font-family="Courier New,monospace" font-size="11" font-weight="900">INCIDENT WIRE</text><text x="16" y="54" fill="#fff" font-size="15" font-weight="900">BROADCAST</text><circle cx="105" cy="21" r="6" fill="#e13d48" filter="url(#redGlow)"/><text x="148" y="31" fill="#fff" font-size="14" font-weight="900">Continuous priority mission reel</text><text x="148" y="56" fill="#92a7b2" font-size="11">seamless loop · fixed label · queue dropdown</text></g><g transform="translate(38 247)"><rect width="252" height="102" rx="14" fill="#102c3b" stroke="#27b7ff" stroke-opacity=".30"/><text x="18" y="29" fill="#8be1ff" font-size="11" font-weight="900">MISSION COMMAND</text><text x="18" y="58" fill="#fff" font-size="15" font-weight="900">Age · Value · Commitment</text><text x="18" y="80" fill="#91a8b5" font-size="11">transport demand · click-to-zoom</text></g><g transform="translate(314 247)"><rect width="252" height="102" rx="14" fill="#18321f" stroke="#75c864" stroke-opacity=".30"/><text x="18" y="29" fill="#b8ebaa" font-size="11" font-weight="900">FLEET CONTROL</text><text x="18" y="58" fill="#fff" font-size="15" font-weight="900">Codes · Categories · Gap</text><text x="18" y="80" fill="#9eb39a" font-size="11">native loading · patient sweep</text></g><g transform="translate(38 369)"><rect width="252" height="102" rx="14" fill="#332a16" stroke="#f0b54d" stroke-opacity=".30"/><text x="18" y="29" fill="#ffe29a" font-size="11" font-weight="900">MAP CONTROL</text><text x="18" y="58" fill="#fff" font-size="15" font-weight="900">Coverage · Bookmarks</text><text x="18" y="80" fill="#b7aa84" font-size="11">profiles · responsive modes</text></g><g transform="translate(314 369)"><rect width="252" height="102" rx="14" fill="#37171d" stroke="#e13d48" stroke-opacity=".30"/><text x="18" y="29" fill="#ffabb2" font-size="11" font-weight="900">FINANCIAL CONTROL</text><text x="18" y="58" fill="#fff" font-size="15" font-weight="900">Reconcile · Variance</text><text x="18" y="80" fill="#b69ba0" font-size="11">payouts · saved webhook reports</text></g><g transform="translate(38 488)"><rect width="528" height="20" rx="10" fill="url(#batten)" opacity=".88"/></g></g><g transform="translate(66 676)"><rect width="1468" height="24" rx="12" fill="#080e12" stroke="#fff" stroke-opacity=".10"/><text x="734" y="16" text-anchor="middle" fill="#dce7ec" font-family="Courier New,monospace" font-size="10" font-weight="900" letter-spacing="1.35">SEE THE MISSION · READ THE FLEET · COMMAND THE MAP · RECONCILE THE OPERATION</text></g></g><rect y="710" width="800" height="10" fill="#27b7ff"/><rect x="800" y="710" width="800" height="10" fill="#d92835"/></svg>