<svg xmlns="http://www.w3.org/2000/svg" viewBox="0 0 1600 640" role="img" aria-labelledby="title desc"><title id="title">MissionChief Map Command Toolkit operational command dashboard</title><desc id="desc">A professional Map Command dashboard with manually wrapped text, operational summaries, and a live command map.</desc><defs><linearGradient id="bg" x1="80" y1="30" x2="1510" y2="620" gradientUnits="userSpaceOnUse"><stop stop-color="#050911"/><stop offset=".48" stop-color="#091525"/><stop offset="1" stop-color="#090D16"/></linearGradient><linearGradient id="panel" x1="0" y1="0" x2="1" y2="1"><stop stop-color="#0D1A2A" stop-opacity=".98"/><stop offset="1" stop-color="#07101B" stop-opacity=".94"/></linearGradient><linearGradient id="cyan" x1="0" y1="0" x2="1" y2="1"><stop stop-color="#78F1FF"/><stop offset=".5" stop-color="#20BCEB"/><stop offset="1" stop-color="#166C9B"/></linearGradient><linearGradient id="trend" x1="0" y1="0" x2="1" y2="0"><stop stop-color="#38D9FF"/><stop offset=".52" stop-color="#6BF5B2"/><stop offset="1" stop-color="#FFD166"/></linearGradient><radialGradient id="criticalGlow"><stop stop-color="#FF405F" stop-opacity=".34"/><stop offset=".52" stop-color="#FF405F" stop-opacity=".12"/><stop offset="1" stop-color="#FF405F" stop-opacity="0"/></radialGradient><radialGradient id="unitGlow"><stop stop-color="#58F5A7" stop-opacity=".24"/><stop offset="1" stop-color="#58F5A7" stop-opacity="0"/></radialGradient><pattern id="grid" width="52" height="52" patternUnits="userSpaceOnUse"><path d="M52 0H0V52" fill="none" stroke="#63DFFF" stroke-opacity=".05"/></pattern><pattern id="mapGrid" width="32" height="32" patternUnits="userSpaceOnUse"><path d="M32 0H0V32" fill="none" stroke="#4EC9E8" stroke-opacity=".055"/></pattern><filter id="smallGlow" x="-100%" y="-100%" width="300%" height="300%"><feGaussianBlur stdDeviation="3.5" result="b"/><feMerge><feMergeNode in="b"/><feMergeNode in="SourceGraphic"/></feMerge></filter><clipPath id="mapClip"><rect x="890" y="55" width="650" height="456" rx="34"/></clipPath></defs><rect width="1600" height="640" rx="34" fill="url(#bg)"/><rect width="1600" height="640" rx="34" fill="url(#grid)"/><circle cx="1380" cy="80" r="300" fill="#15D7FF" opacity=".07"/><circle cx="1230" cy="590" r="340" fill="#55F0A7" opacity=".045"/><g transform="translate(58 52)" font-family="Arial, Helvetica, sans-serif"><rect width="810" height="459" rx="34" fill="url(#panel)" stroke="#4BD7F7" stroke-opacity=".28" stroke-width="2"/><path d="M34 1h235l24 24h473" fill="none" stroke="#67E4FF" stroke-opacity=".48" stroke-width="3"/><path d="M1 358V87l31-31" fill="none" stroke="#67E4FF" stroke-opacity=".18" stroke-width="3"/><g transform="translate(42 34)"><circle cx="24" cy="24" r="23" fill="#092B3A" stroke="#42DDF5" stroke-width="2"/><path d="M24 8 33 23H15L24 8Zm-9 18h18l-9 15-9-15Z" fill="url(#cyan)"/><text x="65" y="19" fill="#7BEAFF" font-size="17" font-weight="800" letter-spacing="3.4">MISSIONCHIEF</text><text x="65" y="44" fill="#91A9BC" font-size="13" font-weight="700" letter-spacing="2">MAP COMMAND TOOLKIT</text></g><text x="43" y="132" fill="#F4FAFF" font-size="42" font-weight="800" letter-spacing="-.8">One map. Every</text><text x="43" y="176" fill="#F4FAFF" font-size="42" font-weight="800" letter-spacing="-.8">operational layer.</text><text x="45" y="216" fill="#A4BACE" font-size="18">Mission control, live fleet state, geographic coverage,</text><text x="45" y="242" fill="#A4BACE" font-size="18">finance and cinematic presentation — coordinated</text><text x="45" y="268" fill="#A4BACE" font-size="18">in one userscript.</text><g transform="translate(43 292)"><g><rect width="174" height="104" rx="18" fill="#0B2130" stroke="#35CEF1" stroke-opacity=".48"/><circle cx="27" cy="25" r="8" fill="#4DE2FF"/><text x="44" y="31" fill="#CFF8FF" font-size="14" font-weight="800">MISSIONS</text><text x="16" y="67" fill="#FFFFFF" font-size="27" font-weight="800">24 ACTIVE</text><text x="16" y="90" fill="#78A0B9" font-size="11">age · state · priority</text></g><g transform="translate(188)"><rect width="174" height="104" rx="18" fill="#0B251F" stroke="#5AE9A5" stroke-opacity=".46"/><circle cx="27" cy="25" r="8" fill="#62F4B0"/><text x="44" y="31" fill="#D9FFEB" font-size="14" font-weight="800">FLEET</text><text x="16" y="67" fill="#FFFFFF" font-size="27" font-weight="800">318 UNITS</text><text x="16" y="90" fill="#79AA94" font-size="11">codes · demand · focus</text></g><g transform="translate(376)"><rect width="174" height="104" rx="18" fill="#261F0E" stroke="#F3C74F" stroke-opacity=".48"/><circle cx="27" cy="25" r="8" fill="#FFD166"/><text x="44" y="31" fill="#FFF2C4" font-size="14" font-weight="800">FINANCE</text><text x="16" y="67" fill="#FFFFFF" font-size="27" font-weight="800">+3.43M</text><text x="16" y="90" fill="#B7A46C" font-size="11">income · spend · reports</text></g><g transform="translate(564)"><rect width="174" height="104" rx="18" fill="#21152C" stroke="#C989FF" stroke-opacity=".48"/><circle cx="27" cy="25" r="8" fill="#CF8BFF"/><text x="44" y="31" fill="#F4E5FF" font-size="14" font-weight="800">COVERAGE</text><text x="16" y="67" fill="#FFFFFF" font-size="27" font-weight="800">LIVE MAP</text><text x="16" y="90" fill="#9C82B1" font-size="11">heat · rings · bookmarks</text></g></g><text x="45" y="431" fill="#637D91" font-size="13" font-weight="700" letter-spacing="1.25">DESKTOP · TABLET · iOS · ECONOMY MODE · VERIFIED DELIVERY</text></g><g clip-path="url(#mapClip)" font-family="Arial, Helvetica, sans-serif"><rect x="890" y="55" width="650" height="456" rx="34" fill="#06111D" stroke="#3BCDEC" stroke-opacity=".34" stroke-width="2"/><rect x="890" y="55" width="650" height="456" fill="url(#mapGrid)"/><path d="M858 428c110-32 166-5 242-39 73-33 111-93 191-109 79-16 143 19 285-15v265H858Z" fill="#081C2A"/><path d="M864 435c112-43 173-16 246-52 84-42 113-109 203-124 80-13 142 28 272-12" fill="none" stroke="#0D3B58" stroke-width="32" opacity=".74"/><path d="M864 435c112-43 173-16 246-52 84-42 113-109 203-124 80-13 142 28 272-12" fill="none" stroke="#176287" stroke-width="3" opacity=".52"/><g fill="none" stroke-linecap="round"><path d="M900 166 984 132 1052 153 1116 112 1192 127 1261 95 1342 117 1447 80 1548 108" stroke="#1A5874" stroke-width="3" opacity=".58"/><path d="M902 223 981 244 1048 211 1139 231 1216 194 1297 216 1371 181 1458 207 1545 181" stroke="#21708B" stroke-width="2.5" opacity=".56"/><path d="M895 309 977 285 1056 309 1133 279 1218 306 1296 278 1389 305 1461 273 1543 291" stroke="#1C6983" stroke-width="2.5" opacity=".52"/><path d="M930 493 975 426 1039 397 1082 333 1145 299 1184 229 1233 184 1270 111 1302 58" stroke="#1C5A78" stroke-width="2" opacity=".52"/><path d="M1040 520 1071 452 1124 409 1168 345 1245 319 1298 255 1374 222 1433 153 1498 125" stroke="#217C91" stroke-width="2.5" opacity=".52"/><path d="M899 102 953 141 1001 194 1038 260 1092 296 1118 369 1170 424 1207 509" stroke="#174A68" stroke-width="2" opacity=".5"/><path d="M986 58 1014 111 1077 170 1115 222 1171 257 1217 335 1285 389 1325 510" stroke="#1B536E" stroke-width="2" opacity=".5"/><path d="M1385 57 1360 123 1391 189 1370 250 1418 315 1406 381 1461 439 1490 509" stroke="#1A536E" stroke-width="2" opacity=".5"/></g><g fill="none" stroke="#3AB6D1" stroke-width="1.3" opacity=".17"><path d="M922 126c76-48 165-39 222 6 59 47 132 51 215 9 80-40 141-32 210 6"/><path d="M909 186c72-37 142-28 208 10 72 42 146 45 221 4 80-43 144-37 211-4"/><path d="M907 258c90-43 166-29 230 5 75 40 134 35 215-7 74-38 132-34 202-4"/><path d="M903 348c86-40 157-28 224 6 67 34 146 38 226 1 70-33 126-31 198-5"/><path d="M921 442c81-36 153-32 218-2 78 36 149 35 220-1 69-34 125-29 176-5"/></g><g transform="translate(914 76)"><rect width="216" height="62" rx="16" fill="#081827" fill-opacity=".97" stroke="#28C8EB" stroke-opacity=".38"/><text x="16" y="24" fill="#54DFFF" font-size="11" font-weight="800" letter-spacing="1.6">LIVE OPERATIONS</text><text x="16" y="47" fill="#F2FAFF" font-size="16" font-weight="800">COMMAND MAP</text><circle cx="197" cy="18" r="5" fill="#5AF0A8" filter="url(#smallGlow)"/></g><g><g transform="translate(1144 76)"><rect width="116" height="62" rx="15" fill="#081827" fill-opacity=".97" stroke="#2CD9F8" stroke-opacity=".42"/><circle cx="23" cy="31" r="17" fill="#082431" stroke="#2CD9F8" stroke-width="2"/><circle cx="23" cy="31" r="5" fill="#BDFBFF" stroke="#35DFF7" stroke-width="3"/><path d="M23 18v6M23 38v6M10 31h6M30 31h6" stroke="#56E6F7" stroke-width="1.6" stroke-linecap="round"/><text x="48" y="29" fill="#FFFFFF" font-size="22" font-weight="800">24</text><text x="48" y="46" fill="#8FA9BB" font-size="9" font-weight="800" letter-spacing=".6">MISSIONS</text></g><g transform="translate(1272 76)"><rect width="116" height="62" rx="15" fill="#081827" fill-opacity=".97" stroke="#FF4768" stroke-opacity=".42"/><circle cx="23" cy="31" r="17" fill="#251019" stroke="#FF4768" stroke-width="2"/><path d="M23 21 31 38H15L23 21Z" fill="#FF5D78"/><circle cx="23" cy="42" r="1.8" fill="#FFE0E6"/><text x="48" y="29" fill="#FFFFFF" font-size="22" font-weight="800">7</text><text x="48" y="46" fill="#B99BA3" font-size="9" font-weight="800" letter-spacing=".5">CRITICAL</text></g><g transform="translate(1400 76)"><rect width="116" height="62" rx="15" fill="#081827" fill-opacity=".97" stroke="#54EDA0" stroke-opacity=".42"/><circle cx="23" cy="31" r="17" fill="#0D261C" stroke="#54EDA0" stroke-width="2"/><path d="m16 31 5 5 10-12" fill="none" stroke="#B8FFD7" stroke-width="4" stroke-linecap="round" stroke-linejoin="round"/><text x="48" y="29" fill="#FFFFFF" font-size="22" font-weight="800">318</text><text x="48" y="46" fill="#91B4A2" font-size="9" font-weight="800" letter-spacing=".6">UNITS</text></g></g><g transform="translate(1278 275)"><circle r="92" fill="url(#criticalGlow)"/><circle r="59" fill="none" stroke="#FF4261" stroke-opacity=".24" stroke-width="1.5"/><circle r="41" fill="none" stroke="#FF4261" stroke-opacity=".38" stroke-width="1.5"/><circle r="23" fill="#35101B" stroke="#FF4B68" stroke-width="2.5" filter="url(#smallGlow)"/><path d="M0-11 10 9H-10L0-11Z" fill="#FF6A82"/><circle cy="14" r="2.5" fill="#FFE3E8"/><path d="M-86-28-122-54M66-45l53-31M63 48l54 34M-55 55l-50 43" stroke="#FF4B68" stroke-opacity=".62" stroke-width="1.5"/></g><g filter="url(#smallGlow)"><g transform="translate(1016 225)"><circle r="31" fill="#092736" stroke="#2EDDF7" stroke-width="2"/><circle r="10" fill="#D8FFFF" stroke="#2EDDF7" stroke-width="4"/><path d="M0-47v12M0 35v12M-47 0h12M35 0h12" stroke="#45E3F7" stroke-width="2.5" stroke-linecap="round"/></g><g transform="translate(1116 356)"><circle r="38" fill="url(#unitGlow)"/><circle r="20" fill="#0B2A20" stroke="#56EEA2" stroke-width="2"/><path d="M-10-5h15l7 7v8h-4a6 6 0 0 1-12 0h-6a6 6 0 0 1-12 0h-4V0h6l4-5h6Z" fill="#5BF0A7"/></g><g transform="translate(1423 342)"><circle r="39" fill="url(#unitGlow)"/><circle r="20" fill="#0C2A20" stroke="#58EDA1" stroke-width="2"/><path d="M-10 10V-8h20v18M-14 10h28M-5-8v-7h10v7M-5-2h3M2-2h3M-5 4h3M2 4h3" fill="none" stroke="#9FFFD0" stroke-width="2.6" stroke-linecap="round"/></g><g transform="translate(1070 292)"><circle r="17" fill="#14203D" stroke="#9A86FF" stroke-width="1.8"/><path d="M-7 8V-5h14V8M-10 8h20M-3-5v-6h6v6" fill="none" stroke="#C3B6FF" stroke-width="2"/></g><g transform="translate(1361 198)"><circle r="14" fill="#0B2732" stroke="#32DDF6"/><path d="M-6 7V-4h12V7M-9 7H9M-2-4v-5h4v5" fill="none" stroke="#7EEDFF" stroke-width="2"/></g><g transform="translate(1471 244)"><circle r="8" fill="#FFB245" stroke="#FFE1A2" stroke-width="2"/></g><g transform="translate(1194 202)"><circle r="7" fill="#5AF1A6" stroke="#C7FFE2" stroke-width="2"/></g><g transform="translate(998 334)"><circle r="7" fill="#35D9FF" stroke="#C9F8FF" stroke-width="2"/></g></g><g fill="none" stroke-linecap="round"><path d="M1016 225c63 17 91 70 100 131" stroke="#40E5B0" stroke-width="2.2" stroke-dasharray="6 8" opacity=".68"/><path d="M1116 356c54-36 95-57 162-82" stroke="#4FECA7" stroke-width="2.2" stroke-dasharray="6 8" opacity=".7"/><path d="M1278 274c52 34 89 53 145 68" stroke="#FF526E" stroke-width="2" stroke-dasharray="6 8" opacity=".68"/><path d="M1361 198c-30 24-52 40-83 76" stroke="#43DDF4" stroke-width="1.8" stroke-dasharray="5 7" opacity=".62"/></g><g transform="translate(914 392)"><rect width="344" height="96" rx="17" fill="#071521" fill-opacity=".97" stroke="#39CDEB" stroke-opacity=".26"/><text x="17" y="25" fill="#EAF8FF" font-size="12" font-weight="800" letter-spacing="1">OPERATIONAL ACTIVITY</text><text x="17" y="43" fill="#718FA3" font-size="10" font-weight="700">LAST 24 HOURS</text><path d="M18 78H326M18 57H326" stroke="#497184" stroke-opacity=".24"/><path d="M18 78 49 70 77 64 105 67 134 52 164 61 194 42 224 35 255 43 284 27 309 30 326 20" fill="none" stroke="url(#trend)" stroke-width="3.5" stroke-linecap="round" stroke-linejoin="round"/><g fill="#E9FFFF"><circle cx="77" cy="64" r="3"/><circle cx="164" cy="61" r="3"/><circle cx="224" cy="35" r="3"/><circle cx="284" cy="27" r="3"/><circle cx="326" cy="20" r="3"/></g></g><g transform="translate(1376 392)"><rect width="140" height="96" rx="16" fill="#071521" fill-opacity=".97" stroke="#39CDEB" stroke-opacity=".25"/><g transform="translate(14 17)" font-size="9" font-weight="700"><circle cx="5" cy="0" r="4" fill="#39D9FF"/><text x="17" y="4" fill="#B7CAD8">MISSIONS</text><circle cx="5" cy="18" r="4" fill="#59F0A7"/><text x="17" y="22" fill="#B7CAD8">DEPLOYED UNITS</text><path d="M1 42V33h8v9M-1 42h12" fill="none" stroke="#A99AFF" stroke-width="1.5"/><text x="17" y="42" fill="#B7CAD8">BUILDINGS</text><path d="M5 50 10 60H0L5 50Z" fill="#FF5874"/><text x="17" y="60" fill="#B7CAD8">CRITICAL</text><circle cx="5" cy="76" r="4" fill="#FFB245"/><text x="17" y="80" fill="#B7CAD8">RESOURCES</text></g></g></g><g transform="translate(58 545)" font-family="Arial, Helvetica, sans-serif"><text x="0" y="22" fill="#6C859A" font-size="13" font-weight="800" letter-spacing="1.5">SEVEN COMPLETE INTERFACE SYSTEMS</text><g transform="translate(0 38)" font-size="12" font-weight="800"><g><rect width="198" height="35" rx="11" fill="#0B2235" stroke="#28A9FF"/><text x="18" y="23" fill="#C9F2FF">MAP COMMAND</text></g><g transform="translate(211)"><rect width="177" height="35" rx="11" fill="#23072E" stroke="#FF2BD6"/><text x="18" y="23" fill="#7EFAFF">CYBERPUNK</text></g><g transform="translate(401)"><rect width="166" height="35" rx="11" fill="#102218" stroke="#76FF70"/><text x="18" y="23" fill="#C7FF9B">FALLOUT 4</text></g><g transform="translate(580)"><rect width="166" height="35" rx="11" fill="#171B22" stroke="#ED1C24"/><text x="18" y="23" fill="#F1F3F5">UMBRELLA</text></g><g transform="translate(759)"><rect width="154" height="35" rx="11" fill="#2F2920" stroke="#E79227"/><text x="18" y="23" fill="#FFD083">FACTORIO</text></g><g transform="translate(926)"><rect width="210" height="35" rx="11" fill="#161616" stroke="#D5B76D"/><text x="18" y="23" fill="#F5E7BB">007 INTELLIGENCE</text></g><g transform="translate(1149)"><rect width="210" height="35" rx="11" fill="#163025" stroke="#3DE7E5"/><text x="18" y="23" fill="#E8BF4D">HYRULE COMMAND</text></g></g></g><rect x="1" y="1" width="1598" height="638" rx="33" fill="none" stroke="#82E9FF" stroke-opacity=".14" stroke-width="2"/></svg>