<svg xmlns="http://www.w3.org/2000/svg" viewBox="0 0 1600 640" role="img" aria-labelledby="title desc">
  <title id="title">MissionChief Map Command Toolkit operational suite</title>
  <desc id="desc">A multi-system command dashboard showing mission intelligence, fleet awareness, map coverage, finance and seven equal interface themes.</desc>
  <defs>
    <linearGradient id="bg" x1="70" y1="30" x2="1510" y2="620" gradientUnits="userSpaceOnUse">
      <stop stop-color="#050911"/>
      <stop offset=".48" stop-color="#091525"/>
      <stop offset="1" stop-color="#090D16"/>
    </linearGradient>
    <linearGradient id="panel" x1="0" y1="0" x2="1" y2="1">
      <stop stop-color="#0D1A2A" stop-opacity=".98"/>
      <stop offset="1" stop-color="#07101B" stop-opacity=".93"/>
    </linearGradient>
    <linearGradient id="cyan" x1="0" y1="0" x2="1" y2="1">
      <stop stop-color="#78F1FF"/>
      <stop offset=".5" stop-color="#20BCEB"/>
      <stop offset="1" stop-color="#166C9B"/>
    </linearGradient>
    <linearGradient id="line" x1="0" y1="0" x2="1" y2="0">
      <stop stop-color="#38D9FF"/>
      <stop offset=".52" stop-color="#6BF5B2"/>
      <stop offset="1" stop-color="#FFD166"/>
    </linearGradient>
    <pattern id="grid" width="52" height="52" patternUnits="userSpaceOnUse">
      <path d="M52 0H0V52" fill="none" stroke="#63DFFF" stroke-opacity=".05"/>
    </pattern>
    <filter id="shadow" x="-30%" y="-30%" width="160%" height="180%">
      <feDropShadow dx="0" dy="18" stdDeviation="20" flood-color="#000" flood-opacity=".62"/>
    </filter>
    <filter id="glow" x="-100%" y="-100%" width="300%" height="300%">
      <feGaussianBlur stdDeviation="7" result="b"/>
      <feMerge><feMergeNode in="b"/><feMergeNode in="SourceGraphic"/></feMerge>
    </filter>
    <clipPath id="mapClip"><rect x="910" y="55" width="625" height="456" rx="34"/></clipPath>
  </defs>

  <rect width="1600" height="640" rx="34" fill="url(#bg)"/>
  <rect width="1600" height="640" rx="34" fill="url(#grid)"/>
  <circle cx="1380" cy="80" r="300" fill="#15D7FF" opacity=".07"/>
  <circle cx="1230" cy="590" r="340" fill="#55F0A7" opacity=".045"/>

  <g transform="translate(58 52)" filter="url(#shadow)">
    <rect width="810" height="459" rx="34" fill="url(#panel)" stroke="#4BD7F7" stroke-opacity=".28" stroke-width="2"/>
    <path d="M34 1h235l24 24h473" fill="none" stroke="#67E4FF" stroke-opacity=".48" stroke-width="3"/>
    <path d="M1 358V87l31-31" fill="none" stroke="#67E4FF" stroke-opacity=".18" stroke-width="3"/>

    <g transform="translate(42 35)">
      <circle cx="24" cy="24" r="23" fill="#092B3A" stroke="#42DDF5" stroke-width="2"/>
      <path d="M24 8 33 23H15L24 8Zm-9 18h18l-9 15-9-15Z" fill="url(#cyan)"/>
      <text x="65" y="19" fill="#7BEAFF" font-family="Segoe UI,Arial,sans-serif" font-size="17" font-weight="800" letter-spacing="3.8">MISSIONCHIEF</text>
      <text x="65" y="44" fill="#91A9BC" font-family="Segoe UI,Arial,sans-serif" font-size="13" font-weight="700" letter-spacing="2.2">MAP COMMAND TOOLKIT</text>
    </g>

    <text x="43" y="142" fill="#F4FAFF" font-family="Segoe UI,Arial,sans-serif" font-size="58" font-weight="800" letter-spacing="-2">One map. Every operational layer.</text>
    <text x="45" y="190" fill="#A4BACE" font-family="Segoe UI,Arial,sans-serif" font-size="21">Mission control, live fleet state, geographic coverage, finance</text>
    <text x="45" y="221" fill="#A4BACE" font-family="Segoe UI,Arial,sans-serif" font-size="21">and cinematic presentation — coordinated in one userscript.</text>

    <g transform="translate(43 258)">
      <g>
        <rect width="168" height="115" rx="20" fill="#0B2130" stroke="#35CEF1" stroke-opacity=".48"/>
        <circle cx="29" cy="28" r="9" fill="#4DE2FF"/>
        <text x="49" y="34" fill="#CFF8FF" font-family="Segoe UI,Arial,sans-serif" font-size="15" font-weight="800">MISSIONS</text>
        <text x="20" y="71" fill="#FFFFFF" font-family="Segoe UI,Arial,sans-serif" font-size="30" font-weight="800">24 ACTIVE</text>
        <text x="20" y="96" fill="#78A0B9" font-family="Segoe UI,Arial,sans-serif" font-size="13">age · state · priority</text>
      </g>
      <g transform="translate(184)">
        <rect width="168" height="115" rx="20" fill="#0B251F" stroke="#5AE9A5" stroke-opacity=".46"/>
        <circle cx="29" cy="28" r="9" fill="#62F4B0"/>
        <text x="49" y="34" fill="#D9FFEB" font-family="Segoe UI,Arial,sans-serif" font-size="15" font-weight="800">FLEET</text>
        <text x="20" y="71" fill="#FFFFFF" font-family="Segoe UI,Arial,sans-serif" font-size="30" font-weight="800">318 UNITS</text>
        <text x="20" y="96" fill="#79AA94" font-family="Segoe UI,Arial,sans-serif" font-size="13">codes · demand · focus</text>
      </g>
      <g transform="translate(368)">
        <rect width="168" height="115" rx="20" fill="#261F0E" stroke="#F3C74F" stroke-opacity=".48"/>
        <circle cx="29" cy="28" r="9" fill="#FFD166"/>
        <text x="49" y="34" fill="#FFF2C4" font-family="Segoe UI,Arial,sans-serif" font-size="15" font-weight="800">FINANCE</text>
        <text x="20" y="71" fill="#FFFFFF" font-family="Segoe UI,Arial,sans-serif" font-size="30" font-weight="800">+3.43M</text>
        <text x="20" y="96" fill="#B7A46C" font-family="Segoe UI,Arial,sans-serif" font-size="13">income · spend · reports</text>
      </g>
      <g transform="translate(552)">
        <rect width="168" height="115" rx="20" fill="#21152C" stroke="#C989FF" stroke-opacity=".48"/>
        <circle cx="29" cy="28" r="9" fill="#CF8BFF"/>
        <text x="49" y="34" fill="#F4E5FF" font-family="Segoe UI,Arial,sans-serif" font-size="15" font-weight="800">COVERAGE</text>
        <text x="20" y="71" fill="#FFFFFF" font-family="Segoe UI,Arial,sans-serif" font-size="30" font-weight="800">LIVE MAP</text>
        <text x="20" y="96" fill="#9C82B1" font-family="Segoe UI,Arial,sans-serif" font-size="13">heat · rings · bookmarks</text>
      </g>
    </g>

    <text x="45" y="421" fill="#637D91" font-family="Segoe UI,Arial,sans-serif" font-size="14" font-weight="700" letter-spacing="1.4">DESKTOP · TABLET · iOS · ECONOMY MODE · VERIFIED DELIVERY</text>
  </g>

  <g clip-path="url(#mapClip)" filter="url(#shadow)">
    <rect x="910" y="55" width="625" height="456" rx="34" fill="#07111C" stroke="#3BCDEC" stroke-opacity=".29" stroke-width="2"/>
    <path d="M890 170c115-47 182 21 284-28 109-53 232-40 390 34v360H890Z" fill="#0D2130"/>
    <g fill="none" stroke="#42BFD8" stroke-width="2" opacity=".3">
      <path d="M880 145c131-61 194 16 297-35 110-55 230-41 398 29"/>
      <path d="M878 201c135-48 200 24 303-20 114-48 237-34 398 42"/>
      <path d="M879 268c145-36 203 32 311-7 120-42 231-18 389 55"/>
      <path d="M890 345c122-28 206 36 312 6 113-32 219-7 362 50"/>
      <path d="M900 425c125-24 205 27 311 10 118-20 210 7 339 57"/>
    </g>
    <path d="M954 446c95-111 166-79 229-169 61-87 138-92 265-156" fill="none" stroke="#61F0AD" stroke-width="3" stroke-dasharray="9 10" opacity=".52"/>

    <g transform="translate(1010 176)">
      <circle r="38" fill="#092A39" stroke="#48DFF7" stroke-width="3"/>
      <circle r="13" fill="#E0FFFF" stroke="#36DDF4" stroke-width="6" filter="url(#glow)"/>
      <path d="M0-59v19M0 40v19M-59 0h19M40 0h19" stroke="#55E6F7" stroke-width="4" stroke-linecap="round"/>
    </g>
    <g transform="translate(1287 156)">
      <circle r="44" fill="#241018" stroke="#FF5875" stroke-width="3"/>
      <path d="M0-22 19 19H-19L0-22Z" fill="#FF7088"/>
      <rect x="-3" y="27" width="6" height="11" rx="3" fill="#FFD7DF"/>
    </g>
    <g transform="translate(1428 314)">
      <circle r="34" fill="#11291F" stroke="#63EEA9" stroke-width="3"/>
      <path d="m-13 2 8 8 19-24" fill="none" stroke="#B8FFD7" stroke-width="7" stroke-linecap="round" stroke-linejoin="round"/>
    </g>

    <g transform="translate(950 80)">
      <rect width="203" height="63" rx="17" fill="#0A1927" stroke="#31C7EA" stroke-opacity=".45"/>
      <text x="18" y="25" fill="#69E6FF" font-family="Segoe UI,Arial,sans-serif" font-size="12" font-weight="800" letter-spacing="1.8">LIVE OPERATIONS</text>
      <text x="18" y="49" fill="#F1FAFF" font-family="Segoe UI,Arial,sans-serif" font-size="21" font-weight="800">MAP SYNCHRONISED</text>
    </g>

    <g transform="translate(1022 372)">
      <rect width="435" height="92" rx="20" fill="#091522" fill-opacity=".95" stroke="#4BD7F7" stroke-opacity=".25"/>
      <text x="20" y="27" fill="#7D9BB0" font-family="Segoe UI,Arial,sans-serif" font-size="12" font-weight="800" letter-spacing="1.4">OPERATIONAL TREND</text>
      <path d="M22 70 81 59 133 63 185 39 244 49 305 25 365 34 411 17" fill="none" stroke="url(#line)" stroke-width="5" stroke-linecap="round" stroke-linejoin="round"/>
      <g fill="#E9FFFF">
        <circle cx="81" cy="59" r="4"/><circle cx="185" cy="39" r="4"/><circle cx="305" cy="25" r="4"/><circle cx="411" cy="17" r="4"/>
      </g>
    </g>
  </g>

  <g transform="translate(58 545)">
    <text x="0" y="22" fill="#6C859A" font-family="Segoe UI,Arial,sans-serif" font-size="13" font-weight="800" letter-spacing="1.5">SEVEN COMPLETE INTERFACE SYSTEMS</text>
    <g transform="translate(0 38)" font-family="Segoe UI,Arial,sans-serif" font-size="12" font-weight="800">
      <g><rect width="198" height="35" rx="11" fill="#0B2235" stroke="#28A9FF"/><text x="18" y="23" fill="#C9F2FF">MAP COMMAND</text></g>
      <g transform="translate(211)"><rect width="177" height="35" rx="11" fill="#23072E" stroke="#FF2BD6"/><text x="18" y="23" fill="#7EFAFF">CYBERPUNK</text></g>
      <g transform="translate(401)"><rect width="166" height="35" rx="11" fill="#102218" stroke="#76FF70"/><text x="18" y="23" fill="#C7FF9B">FALLOUT 4</text></g>
      <g transform="translate(580)"><rect width="166" height="35" rx="11" fill="#171B22" stroke="#ED1C24"/><text x="18" y="23" fill="#F1F3F5">UMBRELLA</text></g>
      <g transform="translate(759)"><rect width="154" height="35" rx="11" fill="#2F2920" stroke="#E79227"/><text x="18" y="23" fill="#FFD083">FACTORIO</text></g>
      <g transform="translate(926)"><rect width="210" height="35" rx="11" fill="#161616" stroke="#D5B76D"/><text x="18" y="23" fill="#F5E7BB">007 INTELLIGENCE</text></g>
      <g transform="translate(1149)"><rect width="210" height="35" rx="11" fill="#163025" stroke="#3DE7E5"/><text x="18" y="23" fill="#E8BF4D">HYRULE COMMAND</text></g>
    </g>
  </g>

  <rect x="1" y="1" width="1598" height="638" rx="33" fill="none" stroke="#82E9FF" stroke-opacity=".14" stroke-width="2"/>
</svg>
