<svg xmlns="http://www.w3.org/2000/svg" width="1600" height="900" viewBox="0 0 1600 900" role="img" aria-labelledby="title desc">
<title id="title">MissionChief Toolkit Emergency Systems Board</title>
<desc id="desc">Native command divisions for incident, mission, fleet, map, finance and transport systems.</desc>

<defs>
  <linearGradient id="bg" x1="0" y1="0" x2="1" y2="1">
    <stop offset="0" stop-color="#02060a"/>
    <stop offset=".42" stop-color="#07141e"/>
    <stop offset="1" stop-color="#12080b"/>
  </linearGradient>
  <linearGradient id="steel" x1="0" y1="0" x2="0" y2="1">
    <stop offset="0" stop-color="#36434d"/>
    <stop offset=".12" stop-color="#141c22"/>
    <stop offset=".52" stop-color="#080d11"/>
    <stop offset=".88" stop-color="#1b252c"/>
    <stop offset="1" stop-color="#05080a"/>
  </linearGradient>
  <linearGradient id="steel2" x1="0" y1="0" x2="1" y2="1">
    <stop offset="0" stop-color="#26343e"/>
    <stop offset=".25" stop-color="#0b1217"/>
    <stop offset=".72" stop-color="#131d24"/>
    <stop offset="1" stop-color="#04070a"/>
  </linearGradient>
  <linearGradient id="blue" x1="0" y1="0" x2="1" y2="1">
    <stop offset="0" stop-color="#0a537d"/>
    <stop offset=".45" stop-color="#0b2b41"/>
    <stop offset="1" stop-color="#07131c"/>
  </linearGradient>
  <linearGradient id="green" x1="0" y1="0" x2="1" y2="1">
    <stop offset="0" stop-color="#225b2a"/>
    <stop offset=".45" stop-color="#15351c"/>
    <stop offset="1" stop-color="#08130b"/>
  </linearGradient>
  <linearGradient id="amber" x1="0" y1="0" x2="1" y2="1">
    <stop offset="0" stop-color="#6c4d0b"/>
    <stop offset=".45" stop-color="#3a2a0e"/>
    <stop offset="1" stop-color="#151006"/>
  </linearGradient>
  <linearGradient id="red" x1="0" y1="0" x2="1" y2="1">
    <stop offset="0" stop-color="#6d161e"/>
    <stop offset=".45" stop-color="#391218"/>
    <stop offset="1" stop-color="#16080b"/>
  </linearGradient>
  <linearGradient id="cyan" x1="0" y1="0" x2="1" y2="1">
    <stop offset="0" stop-color="#0c6573"/>
    <stop offset=".45" stop-color="#0a3540"/>
    <stop offset="1" stop-color="#061519"/>
  </linearGradient>
  <linearGradient id="goldText" x1="0" y1="0" x2="0" y2="1">
    <stop offset="0" stop-color="#fff2a8"/>
    <stop offset=".28" stop-color="#f6c84f"/>
    <stop offset=".7" stop-color="#b87512"/>
    <stop offset="1" stop-color="#f4bc2d"/>
  </linearGradient>
  <linearGradient id="whiteText" x1="0" y1="0" x2="0" y2="1">
    <stop offset="0" stop-color="#ffffff"/>
    <stop offset=".55" stop-color="#e7e1d4"/>
    <stop offset="1" stop-color="#a9a49a"/>
  </linearGradient>
  <linearGradient id="edge" x1="0" y1="0" x2="1" y2="0">
    <stop offset="0" stop-color="#16b9ff"/>
    <stop offset=".48" stop-color="#5dd9ff"/>
    <stop offset=".52" stop-color="#ff805c"/>
    <stop offset="1" stop-color="#e2242f"/>
  </linearGradient>
  <pattern id="grid" width="42" height="42" patternUnits="userSpaceOnUse">
    <path d="M42 0H0V42" fill="none" stroke="#66d1ff" stroke-opacity=".055"/>
  </pattern>
  <pattern id="scan" width="4" height="4" patternUnits="userSpaceOnUse">
    <rect width="4" height="1.2" fill="#fff" opacity=".025"/>
  </pattern>
  <pattern id="micro" width="12" height="12" patternUnits="userSpaceOnUse">
    <circle cx="1.5" cy="1.5" r=".7" fill="#7fdfff" opacity=".12"/>
  </pattern>
  <filter id="shadow" x="-30%" y="-30%" width="160%" height="160%">
    <feDropShadow dx="0" dy="16" stdDeviation="16" flood-color="#000" flood-opacity=".7"/>
  </filter>
  <filter id="glowB" x="-120%" y="-120%" width="340%" height="340%">
    <feGaussianBlur stdDeviation="7" result="b"/>
    <feMerge><feMergeNode in="b"/><feMergeNode in="SourceGraphic"/></feMerge>
  </filter>
  <filter id="glowR" x="-120%" y="-120%" width="340%" height="340%">
    <feGaussianBlur stdDeviation="8" result="b"/>
    <feMerge><feMergeNode in="b"/><feMergeNode in="SourceGraphic"/></feMerge>
  </filter>
  <filter id="grit" x="-20%" y="-20%" width="140%" height="140%">
    <feTurbulence type="fractalNoise" baseFrequency=".7" numOctaves="2" seed="9" result="noise"/>
    <feColorMatrix in="noise" type="saturate" values="0" result="mono"/>
    <feComponentTransfer in="mono" result="soft">
      <feFuncA type="table" tableValues="0 0 .08"/>
    </feComponentTransfer>
    <feBlend in="SourceGraphic" in2="soft" mode="screen"/>
  </filter>
</defs>

<rect width="1600" height="900" rx="28" fill="url(#bg)"/><rect width="1600" height="900" rx="28" fill="url(#grid)"/><rect width="1600" height="900" rx="28" fill="url(#scan)"/>
<path d="M20 10H1580l10 10v860l-10 10H20L10 880V20z" fill="none" stroke="url(#steel)" stroke-width="18"/>
<rect x="24" y="24" width="1552" height="852" rx="18" fill="none" stroke="#62727c" stroke-opacity=".45" stroke-width="2"/>
<g filter="url(#shadow)">
<path d="M30 28h1540v62H30z" fill="url(#steel)" stroke="#50616b" stroke-width="2"/>
<g transform="translate(42 38)">
<rect width="64" height="42" rx="5" fill="#0a1116" stroke="#4f6470"/>
<path d="M0 0 64 42M64 0 0 42" stroke="#fff" stroke-width="11"/><path d="M0 0 64 42M64 0 0 42" stroke="#c92632" stroke-width="4"/>
<path d="M32 0v42M0 21h64" stroke="#fff" stroke-width="12"/><path d="M32 0v42M0 21h64" stroke="#c92632" stroke-width="6"/>
</g>
<text x="120" y="64" fill="#5ed2ff" font-family="Courier New,monospace" font-size="14" font-weight="900" letter-spacing="2">UK EMERGENCY COMMAND NETWORK</text>
<g transform="translate(410 38)"><rect width="205" height="42" rx="6" fill="#07131f" stroke="#168ddd"/><circle cx="24" cy="21" r="10" fill="#179ee8"/><text x="48" y="27" fill="#e9f8ff" font-size="16" font-weight="900" letter-spacing="2">VERIFIED v7.1.3</text></g>
<g transform="translate(630 38)"><rect width="238" height="42" rx="6" fill="#270a0c" stroke="#d3342f"/><circle cx="24" cy="21" r="10" fill="#e9443b"/><text x="48" y="27" fill="#ffd9d2" font-size="14" font-weight="900" letter-spacing="1.7">7 INTERFACE SYSTEMS</text></g>
<g transform="translate(880 38)"><rect width="255" height="42" rx="6" fill="#251a05" stroke="#d99a16"/><rect x="16" y="10" width="23" height="17" rx="2" fill="none" stroke="#ffd64d" stroke-width="3"/><text x="54" y="27" fill="#ffe39b" font-size="16" font-weight="900" letter-spacing="1.8">DESKTOP · TABLET · iOS</text></g>
<text x="1515" y="59" text-anchor="end" fill="#88949b" font-size="12" letter-spacing="2">SYSTEM STATUS</text><text x="1515" y="78" text-anchor="end" fill="#37c6ff" font-size="14" font-weight="900" letter-spacing="2">OPERATIONAL</text><circle cx="1538" cy="70" r="6" fill="#49e080"/>
</g>
<g filter="url(#grit)">
<text x="68" y="235" fill="url(#whiteText)" font-family="Impact,Arial Black,sans-serif" font-size="101" letter-spacing="2">EMERGENCY</text>
<text x="68" y="330" fill="url(#whiteText)" font-family="Impact,Arial Black,sans-serif" font-size="101" letter-spacing="2">SYSTEMS BOARD</text>
</g>
<text x="78" y="382" fill="url(#goldText)" font-family="Impact,Arial Black,sans-serif" font-size="41" letter-spacing="8">NATIVE COMMAND DIVISIONS</text>
<path d="M68 398h820" stroke="#20b9ff" stroke-width="4"/>
<g transform="translate(65 -45) scale(.82)" opacity=".95">
<path d="M1098 136 l-29 13 -10 32 -27 12 -10 33 -34 13 -2 30 -23 24 7 29 -25 28 10 29 -18 24 4 36 24 9 12 33 31 -3 22 26 38 -4 19 -25 32 -5 14 -31 31 -18 -6 -36 20 -29 -4 -36 -26 -18 -4 -26 -27 -17 8 -25 -19 -26 -27 8 -18 -22 z" fill="#06121a" stroke="#27b7ff" stroke-width="4"/>
<g fill="#ff3e35" filter="url(#glowR)"><circle cx="1046" cy="238" r="7"/><circle cx="1080" cy="286" r="6"/><circle cx="1096" cy="350" r="8"/><circle cx="1134" cy="426" r="7"/></g>
<g fill="#ffba2e" filter="url(#glowB)"><circle cx="1062" cy="315" r="7"/><circle cx="1122" cy="382" r="6"/><circle cx="1160" cy="462" r="7"/></g>
<g fill="#29b7ff" filter="url(#glowB)"><circle cx="1018" cy="270" r="6"/><circle cx="1106" cy="330" r="6"/><circle cx="1148" cy="400" r="6"/></g>
<g stroke="#36c9ff" stroke-opacity=".25"><path d="M990 210 1170 490M1030 190 1200 420M970 300 1180 340M1010 430 1170 250"/></g>
</g>
<g transform="translate(1260 104)" filter="url(#shadow)">
<path d="M0 0h290l16 16v610l-16 16H0l-16-16V16z" fill="url(#steel2)" stroke="#5f737d" stroke-width="3"/>
<rect x="14" y="14" width="262" height="614" rx="8" fill="#05090c" stroke="#27343b"/>
<circle cx="36" cy="54" r="7" fill="#ef4238"/><text x="58" y="63" fill="#fff" font-family="Impact,Arial Black,sans-serif" font-size="25" letter-spacing="2">LIVE DISPATCH</text>
<text x="30" y="103" fill="#ff5b4d" font-family="Arial Narrow,Arial,sans-serif" font-size="16" font-weight="900" letter-spacing="3">PRIORITY INCIDENTS</text>
<g font-family="Arial Narrow,Arial,sans-serif">
<g transform="translate(22 126)"><rect width="246" height="72" rx="6" fill="#0c0e10" stroke="#453033"/><circle cx="30" cy="36" r="18" fill="#4b1010" stroke="#e13c31"/><text x="60" y="27" fill="#fff" font-size="14" font-weight="900">MAJOR FIRE</text><text x="60" y="48" fill="#a8b0b4" font-size="11">12:47 · MANCHESTER</text><rect x="192" y="25" width="42" height="22" rx="4" fill="#3e0b0e" stroke="#d52e2f"/><text x="213" y="40" text-anchor="middle" fill="#ff766a" font-size="9" font-weight="900">HIGH</text></g>
<g transform="translate(22 208)"><rect width="246" height="72" rx="6" fill="#0c0e10" stroke="#263c49"/><circle cx="30" cy="36" r="18" fill="#0a3150" stroke="#168fe1"/><text x="60" y="27" fill="#fff" font-size="13" font-weight="900">MEDICAL EMERGENCY</text><text x="60" y="48" fill="#a8b0b4" font-size="11">12:14 · LEEDS</text><rect x="184" y="25" width="50" height="22" rx="4" fill="#3c2d05" stroke="#d49b16"/><text x="209" y="40" text-anchor="middle" fill="#ffd85b" font-size="8" font-weight="900">MEDIUM</text></g>
<g transform="translate(22 290)"><rect width="246" height="72" rx="6" fill="#0c0e10" stroke="#55451b"/><circle cx="30" cy="36" r="18" fill="#4b3705" stroke="#e0a81d"/><text x="60" y="27" fill="#fff" font-size="13" font-weight="900">RTC – MULTI VEHICLE</text><text x="60" y="48" fill="#a8b0b4" font-size="11">12:01 · BIRMINGHAM</text><rect x="192" y="25" width="42" height="22" rx="4" fill="#3e0b0e" stroke="#d52e2f"/><text x="213" y="40" text-anchor="middle" fill="#ff766a" font-size="9" font-weight="900">HIGH</text></g>
<g transform="translate(22 372)"><rect width="246" height="72" rx="6" fill="#0c0e10" stroke="#263c49"/><circle cx="30" cy="36" r="18" fill="#0a3150" stroke="#168fe1"/><text x="60" y="27" fill="#fff" font-size="13" font-weight="900">SECURITY INCIDENT</text><text x="60" y="48" fill="#a8b0b4" font-size="11">11:59 · LONDON</text><rect x="184" y="25" width="50" height="22" rx="4" fill="#3c2d05" stroke="#d49b16"/><text x="209" y="40" text-anchor="middle" fill="#ffd85b" font-size="8" font-weight="900">MEDIUM</text></g>
</g>
<path d="M26 492h238" stroke="#1a4a63"/><path d="M26 530q12-25 24 0t24 0 24 0 24 0 24 0 24 0 24 0 24 0 24 0" fill="none" stroke="#1faee8"/>
<rect x="22" y="552" width="120" height="58" rx="6" fill="#08120d" stroke="#23442d"/><text x="36" y="576" fill="#7d8c82" font-size="10">CHANNEL STATUS</text><text x="36" y="599" fill="#43d86e" font-size="15" font-weight="900">ENCRYPTED</text>
<rect x="150" y="552" width="118" height="58" rx="6" fill="#081118" stroke="#263b48"/><text x="164" y="576" fill="#7d8c82" font-size="10">UNITS ONLINE</text><text x="164" y="599" fill="#46c9ff" font-size="21" font-weight="900">128</text>
</g>
<g transform="translate(36 432)" filter="url(#shadow)" font-family="Arial Narrow,Arial,sans-serif">
  <g><rect width="194" height="314" rx="12" fill="url(#red)" stroke="#df4038" stroke-width="2"/><circle cx="38" cy="42" r="22" fill="#481112" stroke="#ef4a40"/><path d="M38 25v35M24 34c-12 12-12 25 0 36M52 34c12 12 12 25 0 36" fill="none" stroke="#ff6255" stroke-width="3"/><text x="72" y="31" fill="#ff6255" font-family="Impact,Arial Black,sans-serif" font-size="17">INCIDENT</text><text x="72" y="51" fill="#ff6255" font-family="Impact,Arial Black,sans-serif" font-size="17">COMMAND</text><text x="72" y="71" fill="#ff6255" font-family="Impact,Arial Black,sans-serif" font-size="17">WIRE</text><text x="20" y="112" fill="#fff" font-size="13">• continuous priority reel</text><text x="20" y="138" fill="#fff" font-size="13">• map jump</text><text x="20" y="164" fill="#fff" font-size="13">• queue tracking</text><path d="M20 254h154" stroke="#812128"/><path d="M20 278h20v-20h12v14h12v-35h12v41h12v-26h12v26h12v-53h12v53h12v-31h12v31h26" fill="none" stroke="#f03d3d" stroke-width="3"/></g>
  <g transform="translate(206)"><rect width="194" height="314" rx="12" fill="url(#blue)" stroke="#2db9ff" stroke-width="2"/><circle cx="38" cy="42" r="22" fill="#08233a" stroke="#32baff"/><circle cx="38" cy="42" r="10" fill="none" stroke="#45c5ff" stroke-width="3"/><path d="M38 17v13M38 54v13M13 42h13M50 42h13" stroke="#45c5ff" stroke-width="3"/><text x="72" y="38" fill="#4bc7ff" font-family="Impact,Arial Black,sans-serif" font-size="23">MISSION</text><text x="72" y="63" fill="#4bc7ff" font-family="Impact,Arial Black,sans-serif" font-size="23">CONTROL</text><text x="20" y="104" fill="#fff" font-size="14">Age · Value · Commitment</text><path d="M20 168h154M20 195h120M20 222h145" stroke="#256a91" stroke-width="8" opacity=".5"/><path d="M20 275h154" stroke="#1f6c9d"/><path d="M20 294h40M67 294h48M122 294h52" stroke="#30aeea" stroke-width="6"/></g>
  <g transform="translate(412)"><rect width="194" height="314" rx="12" fill="url(#green)" stroke="#50bc55" stroke-width="2"/><path d="M38 18 60 27v17c0 18-10 28-22 37-12-9-22-19-22-37V27z" fill="#173d1e" stroke="#5ed067" stroke-width="2"/><text x="72" y="38" fill="#62d063" font-family="Impact,Arial Black,sans-serif" font-size="23">FLEET</text><text x="72" y="63" fill="#62d063" font-family="Impact,Arial Black,sans-serif" font-size="23">CONTROL</text><text x="20" y="104" fill="#fff" font-size="14">Codes · Badges · Gap</text><path d="M25 220h45l15-22h43l18 22h23v27H25z" fill="#194927" stroke="#51c761" stroke-width="2"/><circle cx="56" cy="250" r="12" fill="#07120a" stroke="#52cb62"/><circle cx="141" cy="250" r="12" fill="#07120a" stroke="#52cb62"/><path d="M20 294h36M62 294h48M116 294h58" stroke="#45bd55" stroke-width="6"/></g>
  <g transform="translate(618)"><rect width="194" height="314" rx="12" fill="url(#amber)" stroke="#dca522" stroke-width="2"/><path d="M38 19c-14 0-25 11-25 24 0 20 25 42 25 42s25-22 25-42c0-13-11-24-25-24z" fill="#553b08" stroke="#f1bd38" stroke-width="2"/><circle cx="38" cy="42" r="8" fill="#ffd052"/><text x="72" y="38" fill="#f0bb34" font-family="Impact,Arial Black,sans-serif" font-size="23">MAP</text><text x="72" y="63" fill="#f0bb34" font-family="Impact,Arial Black,sans-serif" font-size="23">CONTROL</text><text x="20" y="104" fill="#fff" font-size="14">Coverage · Places · Profiles</text><path d="M20 170c35-25 55 12 82-10s46 18 72-16M25 210c22-20 40 9 65-7s43 18 72-8M35 250c30-14 53 3 83-12s36 8 55-10" fill="none" stroke="#c89420" stroke-width="3" opacity=".75"/><path d="M20 294h36M62 294h48M116 294h58" stroke="#d7a726" stroke-width="6"/></g>
  <g transform="translate(824)"><rect width="194" height="314" rx="12" fill="url(#red)" stroke="#dc3b40" stroke-width="2"/><text x="18" y="68" fill="#ef544f" font-family="Georgia,serif" font-size="58" font-weight="900">£</text><text x="72" y="38" fill="#ef514c" font-family="Impact,Arial Black,sans-serif" font-size="20">FINANCIAL</text><text x="72" y="63" fill="#ef514c" font-family="Impact,Arial Black,sans-serif" font-size="20">CONTROL</text><text x="20" y="104" fill="#fff" font-size="14">Income · Spend · Variance</text><path d="m18 250 28-38 25 11 34-61 28 20 41-75" fill="none" stroke="#f04444" stroke-width="4"/><path d="M20 294h36M62 294h48M116 294h58" stroke="#e03a3a" stroke-width="6"/></g>
  <g transform="translate(1030)"><rect width="194" height="314" rx="12" fill="url(#cyan)" stroke="#31c5d6" stroke-width="2"/><path d="M18 31h43l13 18v25H9V49z" fill="#0c4f59" stroke="#42d1df" stroke-width="2"/><circle cx="26" cy="76" r="9" fill="#061316" stroke="#42d1df"/><circle cx="58" cy="76" r="9" fill="#061316" stroke="#42d1df"/><text x="82" y="38" fill="#48d3e0" font-family="Impact,Arial Black,sans-serif" font-size="20">TRANSPORT</text><text x="82" y="63" fill="#48d3e0" font-family="Impact,Arial Black,sans-serif" font-size="20">WATCH</text><text x="20" y="104" fill="#fff" font-size="14">Patients · Prisoners · Sweep</text><path d="M20 168h154M20 195h120M20 222h145" stroke="#2d6f78" stroke-width="8" opacity=".55"/><path d="M20 294h36M62 294h48M116 294h58" stroke="#36becb" stroke-width="6"/></g>
</g>
<g transform="translate(24 780)"><path d="M0 0h1552l14 14v72l-14 14H0L-14 86V14z" fill="url(#steel)" stroke="#586872" stroke-width="2"/><circle cx="54" cy="50" r="31" fill="#18110e" stroke="#c6a14d" stroke-width="2"/><path d="m54 19 8 22 23 1-18 15 6 23-19-12-19 12 6-23-18-15 23-1z" fill="#d1a841"/><text x="778" y="60" text-anchor="middle" fill="#d2dde2" font-family="Arial Narrow,Arial,sans-serif" font-size="18" font-weight="900" letter-spacing="4">SEE THE MISSION  •  READ THE FLEET  •  COMMAND THE MAP  •  RECONCILE THE OPERATION</text><g transform="translate(1405 25)"><text x="0" y="10" fill="#819099" font-size="9">COMMS</text><circle cx="18" cy="35" r="6" fill="#e33131"/><text x="54" y="10" fill="#819099" font-size="9">DATA</text><circle cx="68" cy="35" r="6" fill="#e2a72f"/><text x="104" y="10" fill="#819099" font-size="9">LINK</text><circle cx="116" cy="35" r="6" fill="#3fdb70"/></g></g>
</svg>