<svg xmlns="http://www.w3.org/2000/svg" width="420" height="760" viewBox="0 0 420 760" role="img" aria-label="Double O agent silhouette">
  <defs><linearGradient id="edge" x1="0" y1="0" x2="1" y2="1"><stop stop-color="#f6e6a9"/><stop offset="1" stop-color="#8b6820"/></linearGradient></defs>
  <g fill="#090a0c" stroke="url(#edge)" stroke-width="3" stroke-linejoin="round">
    <circle cx="206" cy="106" r="59"/>
    <path d="M141 165c21-22 109-24 135 0l42 124-39 30-8-86-25 94 38 306H128l39-306-24-94-9 88-42-29z"/>
    <path d="M162 173l44 68 47-68-15 153h-65z" fill="#f1ead8" stroke="#f1ead8"/>
    <path d="M191 182h31l8 30-24 28-24-28z" fill="#a71924" stroke="#a71924"/>
    <path d="M122 608h69l-29 130H89zM229 608h69l31 130h-74z"/>
    <path d="M286 249l72 30 47-3 5 26-62 15-79-3z"/>
    <path d="M355 265h42v18h-42z"/>
  </g>
  <path d="M69 718h282" stroke="#d8b45f" stroke-width="4" opacity=".7"/>
</svg>
