<svg xmlns="http://www.w3.org/2000/svg" width="1400" height="800" viewBox="0 0 1400 800" role="img" aria-label="Classified intelligence dossier grid">
  <g fill="none" stroke="#d8b45f" stroke-opacity=".15">
    <path d="M0 80h1400M0 160h1400M0 240h1400M0 320h1400M0 400h1400M0 480h1400M0 560h1400M0 640h1400M0 720h1400"/>
    <path d="M100 0v800M200 0v800M300 0v800M400 0v800M500 0v800M600 0v800M700 0v800M800 0v800M900 0v800M1000 0v800M1100 0v800M1200 0v800M1300 0v800"/>
  </g>
  <g fill="none" stroke="#f3ead2" stroke-opacity=".21" stroke-width="2">
    <path d="M86 112h210v110H86zM1140 104h172v172h-172zM918 532h314v142H918zM188 536h356v126H188z"/>
    <path d="M86 112l210 110M296 112L86 222M1140 104l172 172M1312 104l-172 172"/>
    <circle cx="702" cy="388" r="168"/>
    <circle cx="702" cy="388" r="92"/>
    <path d="M534 388h336M702 220v336"/>
  </g>
  <g fill="#d8b45f" fill-opacity=".5" font-family="Consolas,monospace" font-size="18" letter-spacing="3">
    <text x="26" y="42">SIS // DOSSIER GRID 00-7</text>
    <text x="1050" y="42">CLASSIFICATION: EYES ONLY</text>
    <text x="30" y="784">LONDON 51.5074 N / 0.1278 W</text>
    <text x="1082" y="784">FILE REF: Q-BRANCH / ACTIVE</text>
  </g>
  <g fill="#a71924" fill-opacity=".38">
    <circle cx="702" cy="388" r="7"/><circle cx="230" cy="600" r="6"/><circle cx="1170" cy="192" r="6"/>
  </g>
</svg>
