<svg xmlns="http://www.w3.org/2000/svg" width="640" height="640" viewBox="0 0 640 640" role="img" aria-label="Section 00 gun barrel reticle">
  <defs>
    <radialGradient id="shade"><stop offset="0" stop-color="#fff7dc" stop-opacity=".05"/><stop offset=".55" stop-color="#d8b45f" stop-opacity=".08"/><stop offset="1" stop-color="#050607" stop-opacity="0"/></radialGradient>
    <linearGradient id="blade" x1="0" y1="0" x2="1" y2="1"><stop stop-color="#f6e7ae" stop-opacity=".42"/><stop offset="1" stop-color="#8b6b28" stop-opacity=".05"/></linearGradient>
  </defs>
  <circle cx="320" cy="320" r="300" fill="url(#shade)"/>
  <g transform="translate(320 320)" fill="url(#blade)" stroke="#d8b45f" stroke-opacity=".18" stroke-width="1.5">
    <path d="M0-300L52-132 0-72-52-132z"/>
    <path d="M0-300L52-132 0-72-52-132z" transform="rotate(30)"/>
    <path d="M0-300L52-132 0-72-52-132z" transform="rotate(60)"/>
    <path d="M0-300L52-132 0-72-52-132z" transform="rotate(90)"/>
    <path d="M0-300L52-132 0-72-52-132z" transform="rotate(120)"/>
    <path d="M0-300L52-132 0-72-52-132z" transform="rotate(150)"/>
    <path d="M0-300L52-132 0-72-52-132z" transform="rotate(180)"/>
    <path d="M0-300L52-132 0-72-52-132z" transform="rotate(210)"/>
    <path d="M0-300L52-132 0-72-52-132z" transform="rotate(240)"/>
    <path d="M0-300L52-132 0-72-52-132z" transform="rotate(270)"/>
    <path d="M0-300L52-132 0-72-52-132z" transform="rotate(300)"/>
    <path d="M0-300L52-132 0-72-52-132z" transform="rotate(330)"/>
  </g>
  <g fill="none" stroke="#d8b45f">
    <circle cx="320" cy="320" r="288" stroke-width="3" opacity=".35"/>
    <circle cx="320" cy="320" r="119" stroke-width="2" opacity=".6"/>
    <circle cx="320" cy="320" r="68" stroke-width="1" opacity=".46"/>
    <path d="M320 180v280M180 320h280" stroke-width="1.4" opacity=".38"/>
    <path d="M320 220l9 91 91 9-91 9-9 91-9-91-91-9 91-9z" stroke-width="2" opacity=".5"/>
  </g>
  <circle cx="320" cy="320" r="8" fill="#a71924"/>
</svg>
