<svg xmlns="http://www.w3.org/2000/svg" viewBox="0 0 720 360" role="img" aria-labelledby="title desc">
<title id="title">Umbrella Containment payment authorization seal</title>
<desc id="desc">Transparent rectangular BSL-4 credit transfer approval stamp.</desc>
<g transform="rotate(-5 360 180)" fill="none" stroke="#c8102e"><rect x="36" y="48" width="648" height="264" rx="18" stroke-width="14"/><rect x="60" y="72" width="600" height="216" rx="9" stroke-width="4" stroke-dasharray="18 10"/><circle cx="132" cy="180" r="70" stroke-width="8"/><path d="M132 180 132 112A68 68 0 0 1 180 132Z" fill="#c8102e"/><path d="M132 180 180 132A68 68 0 0 1 200 180Z" fill="#eef2f4"/><path d="M132 180 200 180A68 68 0 0 1 180 228Z" fill="#c8102e"/><path d="M132 180 180 228A68 68 0 0 1 132 248Z" fill="#eef2f4"/><path d="M132 180 132 248A68 68 0 0 1 84 228Z" fill="#c8102e"/><path d="M132 180 84 228A68 68 0 0 1 64 180Z" fill="#eef2f4"/><path d="M132 180 64 180A68 68 0 0 1 84 132Z" fill="#c8102e"/><path d="M132 180 84 132A68 68 0 0 1 132 112Z" fill="#eef2f4"/></g>
<g fill="#c8102e" font-family="Arial Narrow,Arial,sans-serif" font-weight="950"><text x="410" y="145" text-anchor="middle" font-size="47" letter-spacing="4">TRANSFER AUTHORIZED</text><text x="410" y="201" text-anchor="middle" font-size="30" letter-spacing="8">CONTAINMENT DIVISION</text><text x="410" y="248" text-anchor="middle" font-family="Consolas,monospace" font-size="22" letter-spacing="3">BSL-4 // FINANCE NODE 07</text></g>
</svg>
