<svg xmlns="http://www.w3.org/2000/svg" width="816" height="276" viewBox="0 0 816 276" role="img" aria-label="007 logo">
<defs><filter id="s" x="-10%" y="-15%" width="125%" height="140%"><feDropShadow dx="5" dy="6" stdDeviation="4" flood-color="#000" flood-opacity=".35"/></filter></defs>
<path fill="#1f1d1e" fill-rule="evenodd" filter="url(#s)" d="M676 70 L569 70 L556 85 L551 95 L549 103 L549 107 L552 116 L560 124 L565 125 L565 117 L564 116 L565 108 L567 106 L569 100 L574 95 L578 94 L580 95 L582 94 L584 95 L586 94 L588 95 L609 95 L610 94 L612 97 L578 136 L571 142 L564 144 L507 144 L495 155 L498 159 L507 159 L508 158 L547 159 L548 158 L571 158 L577 156 L582 153 L601 132 L605 125 L620 110 L624 103 L635 93 L651 88 L665 87 L675 75 Z M575 59 L578 62 L684 62 L685 63 L690 54 L695 50 L707 50 L708 51 L782 50 L787 47 L796 37 L801 28 L803 27 L805 21 L805 16 L803 13 L594 13 L592 23 L587 37 Z M579 12 L423 12 L385 78 L386 81 L415 81 L440 45 L447 45 L448 46 L467 46 L468 45 L507 46 L511 45 L512 47 L503 63 L486 84 L462 110 L413 158 L381 194 L366 214 L352 236 L345 250 L343 256 L344 258 L348 259 L367 259 L368 258 L398 259 L405 244 L409 240 L416 229 L416 226 L423 216 L428 212 L431 208 L430 207 L437 198 L461 171 L467 167 L468 164 L486 148 L516 118 L525 107 L527 107 L527 105 L538 92 L544 87 L554 71 L561 64 L576 36 L580 18 Z M361 18 L354 14 L345 11 L323 10 L310 13 L295 20 L272 36 L262 45 L244 64 L221 94 L214 105 L194 147 L186 171 L181 193 L180 223 L182 232 L189 246 L198 255 L207 260 L208 259 L211 261 L219 263 L233 264 L247 261 L248 259 L257 256 L265 251 L270 250 L273 248 L272 247 L285 237 L290 235 L315 210 L320 202 L329 193 L343 170 L346 167 L358 145 L367 122 L372 105 L372 101 L374 97 L374 92 L378 73 L378 51 L377 50 L376 40 L370 27 Z M338 34 L344 42 L344 51 L342 61 L329 95 L304 143 L278 183 L251 217 L240 228 L229 236 L224 238 L218 237 L214 233 L213 230 L213 218 L219 198 L223 188 L242 152 L242 150 L266 106 L285 77 L305 51 L315 41 L325 34 L331 34 L332 33 Z M188 15 L178 11 L169 9 L156 9 L140 13 L123 21 L102 36 L78 59 L63 77 L44 104 L29 134 L19 159 L11 189 L10 204 L9 205 L9 217 L13 235 L19 246 L32 257 L45 262 L52 262 L53 263 L70 262 L81 259 L97 249 L103 247 L127 227 L147 207 L171 175 L184 153 L192 136 L203 103 L208 78 L209 52 L208 51 L207 40 L205 34 L199 24 Z M167 33 L172 38 L174 43 L174 49 L171 63 L164 83 L153 105 L153 107 L132 146 L105 187 L83 215 L64 233 L56 237 L50 237 L46 234 L44 230 L44 217 L48 202 L55 184 L96 106 L115 77 L137 49 L150 37 L156 33 L160 32 Z"/>
</svg>
